<?xml version="1.0" encoding="UTF-8"?>
<svg width="32px" height="23px" viewBox="0 0 32 23" version="1.1" xmlns="http://www.w3.org/2000/svg" xmlns:xlink="http://www.w3.org/1999/xlink">
    <!-- Generator: Sketch 43.2 (39069) - http://www.bohemiancoding.com/sketch -->
    <title>airplanemode-on</title>
    <desc>Created with Sketch.</desc>
    <defs></defs>
    <g id="Symbols" stroke="none" stroke-width="1" fill="none" fill-rule="evenodd">
        <g id="airplanemode-on" fill="#333333">
            <g transform="translate(11.000000, 4.000000)" id="Shape">
                <path d="M10.0240964,6.67951807 L5.80342422,3.89638554 L5.80342422,0.834939759 C5.80342422,0.389638554 5.43411541,0 5.01204819,0 C4.58998098,0 4.22067216,0.389638554 4.22067216,0.834939759 L4.22067216,3.89638554 L0,6.67951807 L0,7.79277108 L4.22067216,6.40120482 L4.22067216,9.4626506 L3.16550412,10.2975904 L3.16550412,11.1325301 L5.01204819,10.5759036 L6.85859226,11.1325301 L6.85859226,10.2975904 L5.80342422,9.4626506 L5.80342422,6.40120482 L10.0240964,7.79277108 L10.0240964,6.67951807 Z"></path>
            </g>
            <g id="ic_laptop_black_24px" fill-rule="nonzero">
                <path d="M26.6666667,19.75 C28.1333333,19.75 29.3333333,18.5125 29.3333333,17 L29.3333333,3.25 C29.3333333,1.7375 28.1333333,0.5 26.6666667,0.5 L5.33333333,0.5 C3.86666667,0.5 2.66666667,1.7375 2.66666667,3.25 L2.66666667,17 C2.66666667,18.5125 3.86666667,19.75 5.33333333,19.75 L0,19.75 L0,22.5 L32,22.5 L32,19.75 L26.6666667,19.75 Z M5.33333333,3.25 L26.6666667,3.25 L26.6666667,17 L5.33333333,17 L5.33333333,3.25 Z" id="Shape"></path>
            </g>
        </g>
    </g>
</svg>